<svg width="186" height="41" viewBox="0 0 186 41" fill="none" xmlns="http://www.w3.org/2000/svg">
<path d="M21.9839 17.8211L20.7485 19.7162L16.3153 26.4582L5.99561 10.7145H0V40.9629H6.46799V22.3037L14.4258 34.4759H18.1685L24.0915 25.4743L25.3269 23.5792L21.9839 17.8211Z" fill="white"/>
<path d="M85.751 10.7516C96.4704 10.7516 101.558 17.0929 101.558 25.8758C101.558 34.6588 96.4704 41 85.751 41H74.4502V10.7516H85.751ZM85.751 16.4369H80.9182V35.2783H85.751C91.7466 35.2783 94.9806 32.0713 94.9806 25.8758C94.9806 19.6804 91.7466 16.4369 85.751 16.4369Z" fill="white"/>
<path d="M116.244 10.7516C119.696 10.7516 123.148 11.5899 125.655 13.0112V18.8422C123.221 17.0929 119.95 16.2182 116.716 16.2547C113.555 16.2911 111.992 17.1658 111.992 18.9515C111.992 23.9807 127.872 22.1221 127.872 32.4357C127.872 38.9591 122.639 41 116.571 41C112.537 41 108.831 40.0524 105.851 38.376V32.4357C109.158 34.6223 112.792 35.497 116.135 35.497C119.478 35.497 121.549 34.8045 121.549 32.7272C121.549 27.2971 105.67 29.338 105.67 19.0244C105.633 13.3756 110.539 10.7516 116.244 10.7516Z" fill="white"/>
<path d="M153.961 10.7507V16.436H139.172V22.8865H152.653V28.5353H139.172V35.2774H154.215V40.9626H132.704V10.7143H153.961V10.7507Z" fill="white"/>
<path d="M159.449 40.9629V10.7145H165.518L179.544 30.4671C179.471 29.228 179.398 27.6973 179.398 26.3125V10.7145H185.866V40.9629H179.798L165.772 21.2103C165.845 22.4494 165.917 23.9801 165.917 25.3649V40.9629H159.449Z" fill="white"/>
<path d="M55.3733 16.2911C55.4097 15.7444 55.2643 15.1613 54.9736 14.6511L52.7207 10.7516H50.3951L53.2294 15.6716C53.3384 15.8538 53.3748 16.0724 53.3384 16.2911H55.3733Z" fill="#2C3144"/>
<path d="M70.1668 27.2242L63.0447 39.6151C62.5724 40.4533 61.6639 41 60.6828 41H46.4387C45.4576 41 44.5492 40.4898 44.0768 39.6151L39.8254 32.2535L38.6626 30.2491L36.9548 27.2607C36.4824 26.4225 36.4824 25.3656 36.9548 24.5274L44.0768 12.1365C44.5492 11.2983 45.4576 10.7516 46.4387 10.7516H50.4358L53.2701 15.6716C53.3791 15.8538 53.4154 16.0724 53.3791 16.2911H48.0739L42.5507 25.8758L45.0579 30.2126L46.0754 31.9984L48.0739 35.4605H59.084L64.6072 25.8758L59.084 16.2911H55.3776C55.414 15.7444 55.2686 15.1613 54.9779 14.6511L52.725 10.7516H60.6828C61.6639 10.7516 62.5724 11.2619 63.0447 12.1365L70.1668 24.5274C70.6755 25.3292 70.6755 26.386 70.1668 27.2242Z" fill="white"/>
<path d="M54.9752 14.6504L52.7223 10.7509L47.3808 1.45775C46.872 0.546657 45.8909 0 44.8372 0H29.6483C28.5945 0 27.6497 0.546657 27.1047 1.45775L19.5466 14.6504C19.0379 15.5615 19.0379 16.6548 19.5466 17.5659L20.782 19.7161L24.125 25.5106L26.1963 29.0821V25.0369L25.3605 23.6156L22.0175 17.821L21.2908 16.5819C21.1454 16.2904 21.1454 15.9624 21.2908 15.6708L28.8852 2.47817C29.0305 2.18662 29.3576 2.04085 29.6846 2.04085H44.8735C45.2005 2.04085 45.4912 2.22307 45.6729 2.47817L50.4331 10.7509L53.2674 15.6708C53.3764 15.853 53.4127 16.0717 53.3764 16.2904C53.3764 16.3997 53.34 16.4726 53.2674 16.5819L45.6729 29.7746C45.5276 29.9932 45.3095 30.1754 45.0552 30.2119L46.0726 31.9976C46.6177 31.7425 47.0901 31.3416 47.4171 30.795L55.0115 17.6023C55.2296 17.2015 55.3749 16.7641 55.4112 16.2904C55.4112 15.7073 55.2659 15.1606 54.9752 14.6504ZM32.6279 30.2119V32.2163H39.8226L38.6599 30.2119H32.6279Z" fill="#F17900"/>
<path d="M32.6305 10.7516V40.9635H26.1625V22.3408L25.3268 23.6163L21.9838 17.8217L26.6349 10.7516H32.6305Z" fill="white"/>
</svg>
