<svg width="187" height="41" viewBox="0 0 187 41" fill="none" xmlns="http://www.w3.org/2000/svg">
<path d="M22.5093 17.8211L21.2738 19.7162L16.8407 26.4582L6.521 10.7145H0.525391V40.9629H6.99338V22.3037L14.9512 34.4759H18.6939L24.6169 25.4743L25.8523 23.5792L22.5093 17.8211Z" fill="white"/>
<path d="M86.2764 10.7516C96.9958 10.7516 102.083 17.0929 102.083 25.8758C102.083 34.6588 96.9958 41 86.2764 41H74.9756V10.7516H86.2764ZM86.2764 16.4369H81.4436V35.2783H86.2764C92.272 35.2783 95.506 32.0713 95.506 25.8758C95.506 19.6804 92.272 16.4369 86.2764 16.4369Z" fill="white"/>
<path d="M116.769 10.7516C120.221 10.7516 123.673 11.5899 126.181 13.0112V18.8422C123.746 17.0929 120.476 16.2182 117.242 16.2547C114.08 16.2911 112.518 17.1658 112.518 18.9515C112.518 23.9807 128.397 22.1221 128.397 32.4357C128.397 38.9591 123.165 41 117.096 41C113.063 41 109.356 40.0524 106.377 38.376V32.4357C109.684 34.6223 113.317 35.497 116.66 35.497C120.003 35.497 122.074 34.8045 122.074 32.7272C122.074 27.2971 106.195 29.338 106.195 19.0244C106.159 13.3756 111.064 10.7516 116.769 10.7516Z" fill="white"/>
<path d="M154.486 10.7507V16.436H139.697V22.8865H153.178V28.5353H139.697V35.2774H154.741V40.9626H133.229V10.7143H154.486V10.7507Z" fill="white"/>
<path d="M159.975 40.9629V10.7145H166.043L180.069 30.4671C179.996 29.228 179.924 27.6973 179.924 26.3125V10.7145H186.392V40.9629H180.323L166.297 21.2103C166.37 22.4494 166.443 23.9801 166.443 25.3649V40.9629H159.975Z" fill="white"/>
<path d="M55.8986 16.2911C55.9349 15.7444 55.7896 15.1613 55.4989 14.6511L53.246 10.7516H50.9204L53.7547 15.6716C53.8637 15.8538 53.9001 16.0724 53.8637 16.2911H55.8986Z" fill="#2C3144"/>
<path d="M70.6923 27.2242L63.5703 39.6151C63.0979 40.4533 62.1895 41 61.2084 41H46.9642C45.9831 41 45.0747 40.4898 44.6023 39.6151L40.3509 32.2535L39.1881 30.2491L37.4803 27.2607C37.0079 26.4225 37.0079 25.3656 37.4803 24.5274L44.6023 12.1365C45.0747 11.2983 45.9831 10.7516 46.9642 10.7516H50.9613L53.7956 15.6716C53.9046 15.8538 53.9409 16.0724 53.9046 16.2911H48.5994L43.0762 25.8758L45.5834 30.2126L46.6009 31.9984L48.5994 35.4605H59.6095L65.1328 25.8758L59.6095 16.2911H55.9031C55.9395 15.7444 55.7941 15.1613 55.5034 14.6511L53.2505 10.7516H61.2084C62.1895 10.7516 63.0979 11.2619 63.5703 12.1365L70.6923 24.5274C71.201 25.3292 71.201 26.386 70.6923 27.2242Z" fill="white"/>
<path d="M55.5006 14.6504L53.2477 10.7509L47.9061 1.45775C47.3974 0.546657 46.4163 0 45.3626 0H30.1737C29.1199 0 28.1751 0.546657 27.6301 1.45775L20.072 14.6504C19.5633 15.5615 19.5633 16.6548 20.072 17.5659L21.3074 19.7161L24.6504 25.5106L26.7216 29.0821V25.0369L25.8859 23.6156L22.5429 17.821L21.8161 16.5819C21.6708 16.2904 21.6708 15.9624 21.8161 15.6708L29.4106 2.47817C29.5559 2.18662 29.883 2.04085 30.21 2.04085H45.3989C45.7259 2.04085 46.0166 2.22307 46.1983 2.47817L50.9585 10.7509L53.7927 15.6708C53.9018 15.853 53.9381 16.0717 53.9018 16.2904C53.9018 16.3997 53.8654 16.4726 53.7927 16.5819L46.1983 29.7746C46.053 29.9932 45.8349 30.1754 45.5806 30.2119L46.598 31.9976C47.1431 31.7425 47.6154 31.3416 47.9425 30.795L55.5369 17.6023C55.7549 17.2015 55.9003 16.7641 55.9366 16.2904C55.9366 15.7073 55.7913 15.1606 55.5006 14.6504ZM33.1533 30.2119V32.2163H40.348L39.1853 30.2119H33.1533Z" fill="#F17900"/>
<path d="M33.156 10.7516V40.9635H26.688V22.3408L25.8523 23.6163L22.5093 17.8217L27.1604 10.7516H33.156Z" fill="white"/>
</svg>
